# AST/ASF file generated using VICON BodyLanguage
# -----------------------------------------------
:version 1.10
:name VICON
:units
  mass 1.0
  length 0.45
  angle deg
:documentation
   .ast/.asf automatically generated from VICON data using
   VICON BodyBuilder and BodyLanguage model FoxedUp or BRILLIANT.MOD
:root
   order TX TY TZ RX RY RZ
   axis XYZ
   position 0 0 0  
   orientation 0 0 0 
:bonedata
  begin
     id 1 
     name lhipjoint
     direction 0.535335 -0.74333 0.401095 
     length 2.04549 
     axis 0 0 0  XYZ
  end
  begin
     id 2 
     name lfemur
     direction 0.34202 -0.939693 0  
     length 6.95643  
     axis 0 0 20  XYZ
    dof rx ry rz
    limits (-160.0 20.0)
           (-70.0 70.0)
           (-60.0 70.0)
  end
  begin
     id 3 
     name ltibia
     direction 0.34192 -0.939729 0   
     length 5.55969   
     axis 0 0 20   XYZ
    dof rx
    limits (-10.0 170.0)
  end
  begin
     id 4 
     name lfoot
     direction 0.216943 -0.596046 0.773088   
     length 2.27918   
     axis -90 7.62852e-016 20   XYZ
    dof rx rz
    limits (-45.0 90.0)
           (-70.0 20.0)
  end
  begin
     id 5 
     name ltoes
     direction 1.53519e-011 -4.21748e-011 1   
     length 1.05562   
     axis -90 7.62852e-016 20   XYZ
    dof rx
    limits (-90.0 20.0)
  end
  begin
     id 6 
     name rhipjoint
     direction -0.576368 -0.719173 0.38806   
     length 2.1142  
     axis 0 0 0  XYZ 
  end
  begin
     id 7 
     name rfemur
     direction -0.34202 -0.939693 0   
     length 7.07928   
     axis 0 0 -20   XYZ
    dof rx ry rz
    limits (-160.0 20.0)
           (-70.0 70.0)
           (-70.0 60.0)
  end
  begin
     id 8 
     name rtibia
     direction -0.34202 -0.939693 0   
     length 5.79974   
     axis 0 0 -20   XYZ
    dof rx
    limits (-10.0 170.0)
 end
 begin
     id 9 
     name rfoot
     direction -0.189288 -0.520065 0.832888   
     length 2.42173  
     axis -90 -7.62852e-016 -20   XYZ
    dof rx rz
    limits (-45.0 90.0)
           (-20.0 70.0)
  end
  begin
     id 10 
     name rtoes
     direction -1.53574e-011 -4.21658e-011 1   
     length 1.14469   
     axis -90 -7.62852e-016 -20   XYZ
    dof rx
    limits (-90.0 20.0)
  end
  begin
     id 11 
     name lowerback
     direction -0.00135702 0.993803 0.111144   
     length 1.91308   
     axis 0 0 0   XYZ
    dof rx ry rz
    limits (-20.0 45.0)
           (-30.0 30.0)
           (-30.0 30.0)
  end
  begin
     id 12 
     name upperback
     direction -0.0056745 0.999813 0.0184631   
     length 1.9212   
     axis 0 0 0   XYZ
    dof rx ry rz
    limits (-20.0 45.0)
           (-30.0 30.0)
           (-30.0 30.0)
  end
  begin
     id 13 
     name thorax
     direction -0.00733434 0.999426 -0.0330788   
     length 1.94196   
     axis 0 0 0   XYZ
    dof rx ry rz
    limits (-20.0 45.0)
           (-30.0 30.0)
           (-30.0 30.0)
  end
  begin
     id 14 
     name lowerneck
     direction 0.0563074 0.996944 -0.0541571   
     length 2.34257   
     axis 0 0 0   XYZ
    dof rx ry rz
    limits (-20.0 45.0)
           (-30.0 30.0)
           (-30.0 30.0)
  end
  begin
     id 15 
     name upperneck
     direction -0.0544519 0.976166 -0.210085   
     length 2.32506   
     axis 0 0 0   XYZ
    dof rx ry rz
    limits (-20.0 45.0)
           (-30.0 30.0)
           (-30.0 30.0)
  end
  begin
     id 16
     name head
     direction -0.0226035 0.997615 -0.0652205  
     length 2.3648  
     axis 0 0 0   XYZ
    dof rx ry rz
    limits (-20.0 45.0)
           (-30.0 30.0)
           (-30.0 30.0)
  end
  begin
     id 17 
     name lclavicle
     direction 0.92109 0.381297 -0.0787716  
     length 4.0487  
     axis 0 0 0   XYZ
    dof ry rz
    limits (-20.0 10.0)
           (0.0 20.0)
  end
  begin
     id 18 
     name lhumerus
     direction 1 -4.48986e-011 3.56724e-027   
     length 4.94991   
     axis 180 -30 -90   XYZ
    dof rx ry rz
    limits (-60.0 90.0)
           (-90.0 90.0)
           (-90.0 90.0)
  end
  begin
     id 19
     name lradius
     direction 1 -4.48981e-011 8.62147e-027   
     length 2.7606   
     axis 180 -30 -90   XYZ
    dof rx
    limits (-10.0 170.0)
  end
  begin
     id 20
     name lwrist
     direction 1 -4.48989e-011 1.59799e-026   
     length 1.3803   
     axis -1.17785e-014 90 90   XYZ
    dof ry
    limits (-180.0 0.0)
 end
  begin
     id 21 
     name lhand
     direction 1 -4.48896e-011 3.19599e-026   
     length 0.843936   
     axis -2.03931e-014 90 90   XYZ
    dof rx rz
    limits (-90.0 90.0)
           (-45.0 45.0)
  end
  begin
     id 22 
     name lfingers
     direction 1 -4.48887e-011 6.39197e-026   
     length 0.680403   
     axis -4.07862e-014 90 90   XYZ
    dof rx
    limits (0.0 90.0)
  end
  begin
     id 23
     name lthumb
     direction 0.707107 -6.348e-011 0.707107   
     length 0.976926   
     axis -90 45 2.85299e-015   XYZ
    dof rx rz
    limits (-45.0 45.0)
           (-45.0 45.0)
  end
  begin
     id 24 
     name rclavicle
     direction -0.951104 0.307692 -0.026953   
     length 4.21801  
     axis 0 0 0   XYZ 
    dof ry rz
    limits (-10.0 20.0)
           (-20.0 0.0)
  end
  begin
     id 25 
     name rhumerus
     direction -1 -4.4896e-011 -1.8171e-018  
     length 4.32982   
     axis 180 30 90   XYZ
    dof rx ry rz
    limits (-90.0 60.0)
           (-90.0 90.0)
           (-90.0 90.0)
  end
  begin
     id 26 
     name rradius
     direction -1 -4.48959e-011 8.25165e-027   
     length 3.20057   
     axis 180 30 90   XYZ
    dof rx
    limits (-10.0 170.0)
  end
  begin
     id 27 
     name rwrist
     direction -1 -4.48997e-011 1.59799e-026   
     length 1.60029   
     axis -1.17785e-014 -90 -90   XYZ
    dof ry
    limits (-180.0 0.0)
  end
  begin
     id 28
     name rhand
     direction -1 -4.49023e-011 3.19599e-026   
     length 0.960433   
     axis -2.03931e-014 -90 -90   XYZ
    dof rx rz
    limits (-90.0 90.0)
           (-45.0 45.0)
  end
  begin
     id 29
     name rfingers
     direction -1 -4.48802e-011 6.39197e-026   
     length 0.774326   
     axis -4.07862e-014 -90 -90   XYZ
    dof rx
    limits (0.0 90.0)
  end
  begin
     id 30
     name rthumb
     direction -0.707107 -6.34876e-011 0.707107   
     length 1.11178   
     axis -90 -45 -2.85299e-015   XYZ
    dof rx rz
    limits (-45.0 45.0)
           (-45.0 45.0)
  end
:hierarchy
  begin
    root lhipjoint rhipjoint lowerback
    lhipjoint lfemur
    lfemur ltibia
    ltibia lfoot
    lfoot ltoes
    rhipjoint rfemur
    rfemur rtibia
    rtibia rfoot
    rfoot rtoes
    lowerback upperback
    upperback thorax
    thorax lowerneck lclavicle rclavicle
    lowerneck upperneck
    upperneck head
    lclavicle lhumerus
    lhumerus lradius
    lradius lwrist
    lwrist lhand lthumb
    lhand lfingers
    rclavicle rhumerus
    rhumerus rradius
    rradius rwrist
    rwrist rhand rthumb
    rhand rfingers
end

#!OML:ASF C:\KaitlinTest1\Natural Motions\Nikki\Session 2\Nikki.ASF
:FULLY-SPECIFIED
:DEGREES
74
root -11.2449 16.4146 4.94773 -145.21 85.1825 -155.145
lowerback -12.3255 -2.85347 1.3477
upperback -4.34901 -3.75753 0.123017
thorax 2.26308 -1.79815 -1.14937
lowerneck -5.29759 -11.3292 -10.4038
upperneck 5.46158 38.8634 4.85699
head 162.913 65.8007 -40.716
rclavicle 5.76476e-015 -1.59028e-015
rhumerus -36.124 -13.9793 -86.2161
rradius 16.466
rwrist 26.3091
rhand -36.9498 2.86673
rfingers 7.12502
rthumb -10.0262 -26.8744
lclavicle 5.76476e-015 -1.59028e-015
lhumerus -43.781 23.4501 75.8366
lradius 22.4932
lwrist -35.6918
lhand -35.3526 5.77242
lfingers 7.12502
lthumb -8.48504 35.582
rfemur -14.1806 -14.8832 21.8793
rtibia 25.2382
rfoot -18.1111 10.592
rtoes 3.81667e-014
lfemur -18.3711 14.8247 -17.779
ltibia 28.2118
lfoot -12.2041 -16.64
ltoes 2.22639e-014
75
root -11.2425 16.4166 4.94688 -145.374 85.1905 -155.282
lowerback -12.2511 -2.84246 1.32616
upperback -4.35662 -3.74009 0.127882
thorax 2.21707 -1.79016 -1.1257
lowerneck -5.2527 -11.3139 -10.4537
upperneck 5.4707 38.8826 4.86426
head 163.09 65.7375 -40.5693
rclavicle 1.41634e-014 3.97569e-016
rhumerus -36.1574 -13.8776 -86.2141
rradius 16.4838
rwrist 26.1877
rhand -36.9094 2.76041
rfingers 7.12502
rthumb -9.98721 -26.9826
lclavicle 1.41634e-014 3.97569e-016
lhumerus -43.8236 23.399 75.904
lradius 22.5021
lwrist -35.5678
lhand -35.5074 5.71513
lfingers 7.12502
lthumb -8.6345 35.5186
rfemur -14.1317 -14.8254 21.8394
rtibia 25.2341
rfoot -18.1128 10.562
rtoes 1.20861e-013
lfemur -18.3347 14.8142 -17.782
ltibia 28.2186
lfoot -12.1682 -16.6474
ltoes 4.92986e-014
76
root -11.2386 16.4155 4.94619 -145.111 85.1817 -155.003
lowerback -12.2598 -2.83142 1.36608
upperback -4.31418 -3.73216 0.110297
thorax 2.26242 -1.78664 -1.167
lowerneck -5.30765 -11.3423 -10.3953
upperneck 5.45523 38.854 4.86249
head 162.964 65.7808 -40.6801
rclavicle -1.55052e-014 -1.19271e-014
rhumerus -36.1512 -13.8245 -86.3183
rradius 16.5516
rwrist 25.9344
rhand -36.8885 2.67825
rfingers 7.12502
rthumb -9.96708 -27.0658
lclavicle -1.55052e-014 -1.19271e-014
lhumerus -43.7799 23.386 75.9172
lradius 22.498
lwrist -35.4532
lhand -35.5349 5.67217
lfingers 7.12502
lthumb -8.66101 35.4745
rfemur -14.0945 -14.8443 21.855
rtibia 25.2327
rfoot -18.1691 10.5864
rtoes -3.4191e-014
lfemur -18.2854 14.7799 -17.7411
ltibia 28.2246
lfoot -12.2783 -16.5857
ltoes -7.95139e-015
77
root -11.2367 16.4148 4.94524 -145.101 85.1759 -155.026
lowerback -12.2663 -2.8327 1.36839
upperback -4.32265 -3.73374 0.11369
thorax 2.25712 -1.78731 -1.16505
lowerneck -5.28865 -11.352 -10.3918
upperneck 5.45773 38.8345 4.8565
head 162.931 65.7596 -40.6859
rclavicle -9.86469e-015 -2.78299e-015
rhumerus -36.1651 -14.0119 -86.2112
rradius 16.5132
rwrist 26.1529
rhand -36.9465 2.74857
rfingers 7.12502
rthumb -10.023 -26.9928
lclavicle -9.86469e-015 -2.78299e-015
lhumerus -43.8837 23.5058 75.8058
lradius 22.5863
lwrist -35.7438
lhand -35.4132 5.70829
lfingers 7.12502
lthumb -8.54358 35.5154
rfemur -14.1162 -14.8592 21.8636
rtibia 25.22
rfoot -18.1901 10.5788
rtoes -1.27222e-014
lfemur -18.3146 14.7407 -17.7454
ltibia 28.2298
lfoot -12.2715 -16.5661
ltoes -1.59028e-015
78
root -11.2341 16.4144 4.94465 -145.055 85.1868 -154.997
lowerback -12.2097 -2.84105 1.36939
upperback -4.37472 -3.74172 0.114058
thorax 2.17184 -1.79176 -1.16151
lowerneck -5.22062 -11.3533 -10.3769
upperneck 5.4904 38.8444 4.86332
head 162.8 65.7864 -40.7755
rclavicle 1.71452e-015 2.38542e-015
rhumerus -36.2722 -13.9499 -86.2084
rradius 16.5208
rwrist 26.1168
rhand -36.9501 2.75095
rfingers 7.12502
rthumb -10.0265 -26.9902
lclavicle 1.71452e-015 2.38542e-015
lhumerus -43.9414 23.357 75.8641
lradius 22.5405
lwrist -35.5074
lhand -35.4565 5.63992
lfingers 7.12502
lthumb -8.58536 35.4454
rfemur -14.1235 -14.8983 21.8681
rtibia 25.2131
rfoot -18.2008 10.6034
rtoes -1.90833e-014
lfemur -18.3158 14.7162 -17.7487
ltibia 28.2335
lfoot -12.2379 -16.5499
ltoes 2.54444e-014
79
root -11.2317 16.4133 4.94435 -144.785 85.1839 -154.747
lowerback -12.1522 -2.84186 1.38205
upperback -4.42166 -3.74197 0.133594
thorax 2.09222 -1.79232 -1.14372
lowerneck -5.14753 -11.3203 -10.4244
upperneck 5.52261 38.9098 4.88493
head 162.982 65.7101 -40.6287
rclavicle 8.44835e-015 -3.97569e-016
rhumerus -36.3683 -13.9106 -86.1587
rradius 16.5412
rwrist 26.1227
rhand -36.9558 2.78667
rfingers 7.12502
rthumb -10.032 -26.9542
lclavicle 8.44835e-015 -3.97569e-016
lhumerus -44.0829 23.4357 75.778
lradius 22.5535
lwrist -35.7432
lhand -35.353 5.67022
lfingers 7.12502
lthumb -8.48545 35.4797
rfemur -14.137 -14.8868 21.8894
rtibia 25.2144
rfoot -18.1862 10.6051
rtoes -9.54166e-015
lfemur -18.323 14.6831 -17.7274
ltibia 28.2339
lfoot -12.2415 -16.5063
ltoes -7.79236e-014
